
<svg width="58" height="58" viewBox="0 0 58 58" fill="none" xmlns="http://www.w3.org/2000/svg">
<path fill-rule="evenodd" clip-rule="evenodd" d="M10.9617 44.46C10.9617 44.46 15.7055 52.3618 22.0643 55.2393C28.4231 58.1168 34.3979 55.6757 37.9135 53.4973C41.429 51.3189 46.2255 44.527 47.0897 43.1217C47.954 41.7165 53.1381 27.9218 53.1381 27.9218L49.7549 21.5577H44.1618C44.1618 21.5577 36.7307 16.3602 29.2868 16.3602C21.8429 16.3602 16.5151 18.6689 13.1358 21.5577C9.7564 24.4465 8.11309 20.1481 8.11309 20.1481L5.43555 27.1578V34.242L10.9617 44.46Z" fill="white" stroke="#092B4C" stroke-width="2"/>
<path fill-rule="evenodd" clip-rule="evenodd" d="M8.26474 8.11527C8.26474 8.11527 17.5225 1 27.3786 1C37.2346 1 45.7026 4.83081 49.4203 8.99671C53.138 13.1626 42.519 23.8562 42.519 23.8562H11.5187L6.51367 11.6474L8.26474 8.11527Z" fill="white" stroke="#092B4C" stroke-width="2"/>
<path d="M38.8893 2.35858C38.8893 2.35858 37.4685 11.8817 29.2869 16.3602" stroke="#092B4C" stroke-width="2" stroke-linejoin="round"/>
<path fill-rule="evenodd" clip-rule="evenodd" d="M47.0899 1V13.2216C47.0899 13.2216 42.7256 17.1301 42.7256 22.9613C42.7256 28.7925 42.7256 30.6814 42.7256 30.6814C42.7256 30.6814 43.2387 36.1067 48.1884 33.8238C46.632 37.216 44.1646 41.7004 44.1646 41.7004C44.1646 41.7004 42.8722 44.8529 44.1646 46.3043C45.457 47.7557 47.8791 48.1299 49.6055 44.9151C51.3319 41.7004 56.4554 31.6309 56.4554 31.6309V1L47.0899 1Z" fill="white" stroke="#092B4C" stroke-width="2" stroke-linejoin="round"/>
<path d="M47.145 34.4634C47.145 34.4634 48.6918 34.1385 48.6918 30.0878C48.6918 26.0372 48.6918 25.0695 48.6918 25.0695" stroke="#092B4C" stroke-width="2" stroke-linecap="round"/>
<path fill-rule="evenodd" clip-rule="evenodd" d="M10.3655 1V13.2216C10.3655 13.2216 14.7297 17.1301 14.7297 22.9613C14.7297 28.7925 14.7297 30.6814 14.7297 30.6814C14.7297 30.6814 14.2166 36.1067 9.26688 33.8238C10.8233 37.216 13.2907 41.7004 13.2907 41.7004C13.2907 41.7004 14.5831 44.8529 13.2907 46.3043C11.9983 47.7557 9.57624 48.1299 7.84983 44.9151C6.12343 41.7004 0.999957 31.6309 0.999957 31.6309V1L10.3655 1Z" fill="white" stroke="#092B4C" stroke-width="2" stroke-linejoin="round"/>
<path d="M10.2605 34.4634C10.2605 34.4634 8.7137 34.1385 8.7137 30.0878C8.7137 26.0372 8.7137 25.0695 8.7137 25.0695" stroke="#092B4C" stroke-width="2" stroke-linecap="round"/>
<path d="M17.6511 33.2804C17.6511 34.3652 18.5725 35.4499 19.6654 35.4499C20.7584 35.4499 21.8406 34.6741 21.8406 33.2804" stroke="#092B4C" stroke-width="2" stroke-linecap="round" stroke-linejoin="round"/>
<path d="M35.2197 33.2804C35.2197 34.3652 36.1411 35.4499 37.234 35.4499C38.327 35.4499 39.4092 34.6741 39.4092 33.2804" stroke="#092B4C" stroke-width="2" stroke-linecap="round" stroke-linejoin="round"/>
<path d="M26.4084 35.4499V39.3574H30.7245" stroke="#092B4C" stroke-width="2" stroke-linecap="round" stroke-linejoin="round"/>
<path d="M21.489 43.0099C21.489 43.0099 23.9784 47.0163 28.4231 47.0163C32.8678 47.0163 35.2196 43.0099 35.2196 43.0099" stroke="#092B4C" stroke-width="2" stroke-linecap="round" stroke-linejoin="round"/>
</svg>
