
<svg width="61" height="62" viewBox="0 0 61 62" fill="none" xmlns="http://www.w3.org/2000/svg">
<path fill-rule="evenodd" clip-rule="evenodd" d="M31.0821 40.5051C31.0821 40.5051 34.0953 48.6062 41.9381 48.6062C46.2491 46.4695 50.4146 43.7375 53.6099 37.3435C56.8052 30.9495 56.0367 19.9631 52.9371 14.6086C49.8375 9.25414 45.4752 3.79516 36.461 1.84936C27.4468 -0.0964408 20.6002 2.49291 17.6646 5.5686C14.7291 8.64428 14.044 14.3577 16.4996 18.4202C18.9552 22.4827 21.8575 24.8704 24.9532 26.3303C28.0489 27.7903 31.2393 29.2209 33.2862 30.5754C35.3331 31.9299 36.5709 34.8586 35.3331 37.3435C34.0953 39.8284 31.0821 40.5051 31.0821 40.5051Z" fill="white" stroke="#092B4C" stroke-width="2"/>
<path fill-rule="evenodd" clip-rule="evenodd" d="M15.0014 10.2844C15.0014 10.2844 10.7837 14.009 9.64111 18.968C8.49854 23.927 9.38916 25.0022 8.27295 28.1877C7.15674 31.3733 5.48242 33.0461 3 34.6584C5.58105 35.9041 8.29667 36.6077 8.64868 37.6101C9.0007 38.6125 8.64868 40.9355 8.64868 40.9355C8.64868 40.9355 7.17651 42.9761 8.64868 44.2095C8.07007 44.8296 8.43433 46.491 9.64111 46.8079C9.71021 48.0798 9.29932 49.2603 10.4187 50.8647C11.5381 52.4692 12.617 52.4692 13.8171 52.4692C15.0173 52.4692 17.2805 52.4692 17.2805 52.4692C17.2805 52.4692 18.8662 52.4692 21.0806 56.3855C23.2949 60.3018 23.6504 60.9993 23.6504 60.9993H46.8613L41.5242 46.3467L39.5093 27.3218L19.6243 18.2715L17.2805 12.0291L15.0014 10.2844Z" fill="white" stroke="#092B4C" stroke-width="2"/>
<path d="M22.6001 15.1157C22.6001 15.1157 20.792 12.1296 21.5224 9.64453C22.2529 7.15942 25.5417 5.91504 25.5417 5.91504" stroke="#092B4C" stroke-width="2" stroke-linecap="round"/>
<path fill-rule="evenodd" clip-rule="evenodd" d="M42.1323 5.19114C42.1323 5.19114 47.3179 0.140977 52.1807 1.17607C57.0435 2.21116 59.0205 5.24778 59.6841 9.12913C60.3477 13.0105 58.707 17.7649 52.1807 20.0647C49.2256 15.1281 42.1323 5.19114 42.1323 5.19114Z" fill="white" stroke="#092B4C" stroke-width="2"/>
<path fill-rule="evenodd" clip-rule="evenodd" d="M39.333 60.9993L32.1812 48.6062L27.3262 51.45L32.9876 60.9993H39.333Z" fill="white" stroke="#092B4C" stroke-width="2"/>
<path fill-rule="evenodd" clip-rule="evenodd" d="M32.1811 48.6062C32.1811 48.6062 32.8442 43.0703 30.8874 40.3283C28.9307 37.5864 25.1409 37.9621 24.0185 38.5158C22.8962 39.0695 21.0198 39.948 20.5928 43.2028C20.1658 46.4577 22.1081 48.2702 23.2258 48.9843C24.3435 49.6984 27.3262 51.4499 27.3262 51.4499L32.1811 48.6062Z" fill="white" stroke="#092B4C" stroke-width="2"/>
<path d="M12.0747 28.0254C12.0747 28.0254 15.1895 31.1596 17.8506 28.0254" stroke="#092B4C" stroke-width="2" stroke-linecap="round"/>
</svg>
