<svg width="49" height="61" viewBox="0 0 49 61" fill="none" xmlns="http://www.w3.org/2000/svg">
<path fill-rule="evenodd" clip-rule="evenodd" d="M8.11739 59.4626C8.11739 59.4626 19.8948 61.6121 30.6015 55.1637C41.3083 48.7154 42.379 45.4912 45.591 39.0428C48.803 32.5945 48.803 21.3539 45.591 15.1522C42.379 8.95045 38.0963 3.57681 28.4602 1.42736C18.8241 -0.722098 9.18807 5.72627 5.97604 9.8646C2.76402 14.0029 -0.448001 21.8472 1.69335 28.2955C3.8347 34.7439 8.74892 36.9605 10.4062 39.4521C12.0634 41.9437 10.8171 51.1136 5.97604 53.0374C7.41058 53.8329 13.2439 53.3113 17.3624 47.2313C21.481 41.1513 18.867 36.4032 18.867 36.4032C18.867 36.4032 12.5475 40.6549 11.3294 32.5945C10.1113 24.534 12.9584 17.9198 12.9584 17.9198C12.9584 17.9198 13.2198 23.7028 22.4607 28.2955C25.851 30.1768 28.1183 36.9075 21.4166 44.2559C22.9787 44.5099 23.9877 44.2601 25.7835 42.9907C23.1068 53.0143 8.11739 59.4626 8.11739 59.4626Z" fill="white" fill-opacity="0.1" stroke="#8576ED" stroke-width="2"/>
</svg>